<?xml version="1.0"?>
<svg xmlns="http://www.w3.org/2000/svg" xmlns:xlink="http://www.w3.org/1999/xlink" xmlns:svgjs="http://svgjs.com/svgjs" version="1.1" width="512" height="512" x="0" y="0" viewBox="0 0 64 64" style="enable-background:new 0 0 512 512" xml:space="preserve" class=""><g><script/><path xmlns="http://www.w3.org/2000/svg" d="m57.035 26.396c-.761-.887-1.867-1.396-3.035-1.396-.953 0-1.878.342-2.603.963l-4.188 3.589c-1.731-3.908-5.641-6.5-9.941-6.547 1.671-1.468 2.732-3.613 2.732-6.005 0-4.411-3.589-8-8-8s-8 3.589-8 8c0 2.392 1.061 4.537 2.731 6.004-4.301.047-8.21 2.64-9.94 6.547l-4.189-3.59c-.725-.619-1.65-.961-2.602-.961-1.168 0-2.274.509-3.034 1.395-.868 1.01-1.171 2.337-.831 3.644.203.774.669 1.491 1.348 2.072l6.386 5.473c1.717 1.475 4.171 1.827 6.254.896 1.218-.544 2.24-1.567 2.878-2.856v5.406h2v-13.03h-2v2.581c-.24.311-.448.643-.587 1.013l-1.016 2.706c-.406 1.083-1.169 1.941-2.093 2.354-1.398.625-2.984.4-4.136-.589l-6.387-5.474c-.256-.22-.588-.581-.713-1.058-.173-.661-.022-1.33.412-1.835.691-.808 2.011-.907 2.819-.218l6.342 5.437.78-2.076c1.137-3.035 3.844-5.2 6.981-5.718.768 4.716 2.349 9.213 4.727 13.373l1.736-.992c-.577-1.009-1.102-2.04-1.581-3.089l1.401-9.415h.632l1.419 9.366c-.485 1.066-1.018 2.113-1.604 3.138l1.736.992c2.377-4.16 3.958-8.656 4.727-13.373 3.137.517 5.845 2.683 6.982 5.718l.777 2.077 6.344-5.436c.808-.693 2.127-.592 2.82.217.434.504.584 1.173.411 1.834-.124.477-.456.838-.712 1.058l-6.389 5.475c-1.15.99-2.736 1.213-4.134.588-.925-.413-1.688-1.271-2.094-2.354l-1.015-2.704c-.139-.371-.346-.708-.587-1.021v-2.575h-2v13.029h2v-5.406c.638 1.288 1.66 2.311 2.879 2.856.773.346 1.598.515 2.417.515 1.387 0 2.757-.483 3.835-1.41l6.388-5.474c.68-.582 1.146-1.299 1.347-2.073.34-1.306.037-2.633-.83-3.641zm-31.035-9.396c0-3.309 2.691-6 6-6s6 2.691 6 6-2.691 6-6 6-6-2.691-6-6zm2.82 13.683c-.616-1.848-1.084-3.746-1.41-5.683h2.254zm5.519-5.683h2.251c-.324 1.922-.787 3.805-1.396 5.64z" fill="#000000" data-original="#000000" style=""/><path xmlns="http://www.w3.org/2000/svg" d="m52 1c-6.065 0-11 4.935-11 11s4.935 11 11 11 11-4.935 11-11-4.935-11-11-11zm0 20c-4.963 0-9-4.037-9-9s4.037-9 9-9 9 4.037 9 9-4.037 9-9 9z" fill="#000000" data-original="#000000" style=""/><path xmlns="http://www.w3.org/2000/svg" d="m53 9c.552 0 1 .448 1 1h2c0-1.654-1.346-3-3-3v-2h-2v2h-3v3c0 1.654 1.346 3 3 3h2c.552 0 1 .448 1 1v1h-3c-.552 0-1-.448-1-1h-2c0 1.654 1.346 3 3 3v2h2v-2h3v-3c0-1.654-1.346-3-3-3h-2c-.552 0-1-.448-1-1v-1z" fill="#000000" data-original="#000000" style=""/><path xmlns="http://www.w3.org/2000/svg" d="m45 46.219-2.415-.603 1.28-2.136-5.346-5.346-2.136 1.28-.602-2.414h-7.562l-.603 2.415-2.136-1.28-5.346 5.346 1.28 2.136-2.414.602v7.562l2.415.603-1.28 2.136 5.346 5.346 2.136-1.28.602 2.414h7.562l.603-2.415 2.136 1.28 5.346-5.346-1.28-2.136 2.414-.602zm-13 9.781c-3.314 0-6-2.686-6-6s2.686-6 6-6 6 2.686 6 6-2.686 6-6 6z" fill="#00cced" data-original="#f0bc5e" style="" class=""/><path xmlns="http://www.w3.org/2000/svg" d="m32 57c-3.859 0-7-3.141-7-7s3.141-7 7-7 7 3.141 7 7-3.141 7-7 7zm0-12c-2.757 0-5 2.243-5 5s2.243 5 5 5 5-2.243 5-5-2.243-5-5-5z" fill="#000000" data-original="#000000" style=""/><path xmlns="http://www.w3.org/2000/svg" d="m8.764 23c-.852 0-1.617-.474-1.999-1.235l-1.383-2.765h-1.382c-1.654 0-3-1.346-3-3v-8c0-1.654 1.346-3 3-3h14c1.654 0 3 1.346 3 3v8c0 1.654-1.346 3-3 3h-7v1.764c0 1.233-1.003 2.236-2.236 2.236zm-4.764-16c-.552 0-1 .448-1 1v8c0 .552.448 1 1 1h2.618l1.935 3.869c.097.195.448.114.447-.105v-3.764h9c.552 0 1-.448 1-1v-8c0-.552-.448-1-1-1z" fill="#000000" data-original="#000000" style=""/><path xmlns="http://www.w3.org/2000/svg" d="m5 10h12v5h-12z" fill="#00cced" data-original="#f0bc5e" style="" class=""/><path xmlns="http://www.w3.org/2000/svg" d="m5 9h12v2h-12z" fill="#000000" data-original="#000000" style=""/><path xmlns="http://www.w3.org/2000/svg" d="m5 13h8v2h-8z" fill="#000000" data-original="#000000" style=""/><path xmlns="http://www.w3.org/2000/svg" d="m15 13h2v2h-2z" fill="#000000" data-original="#000000" style=""/><path xmlns="http://www.w3.org/2000/svg" d="m60 59h-10c-1.654 0-3-1.346-3-3v-8c0-1.654 1.346-3 3-3h10c1.654 0 3 1.346 3 3v8c0 1.654-1.346 3-3 3zm-10-12c-.552 0-1 .448-1 1v8c0 .552.448 1 1 1h10c.552 0 1-.448 1-1v-8c0-.552-.448-1-1-1z" fill="#000000" data-original="#000000" style=""/><path xmlns="http://www.w3.org/2000/svg" d="m51.707 54.707-1.414-1.414 3.707-3.707 2 2 2.293-2.293 1.414 1.414-3.707 3.707-2-2z" fill="#000000" data-original="#000000" style=""/><path xmlns="http://www.w3.org/2000/svg" d="m11 55h-2v-3.414l2.465-2.465c.34-.34.535-.811.535-1.293 0-1.008-.82-1.828-1.828-1.828h-.344c-1.008 0-1.828.82-1.828 1.828v1.172h-2v-1.172c0-2.11 1.718-3.828 3.828-3.828h.344c2.11 0 3.828 1.718 3.828 3.828 0 1.022-.398 1.984-1.121 2.707l-1.879 1.879z" fill="#000000" data-original="#000000" style=""/><path xmlns="http://www.w3.org/2000/svg" d="m10 63c-1.654 0-3-1.346-3-3s1.346-3 3-3 3 1.346 3 3-1.346 3-3 3zm0-4c-.552 0-1 .448-1 1s.448 1 1 1 1-.448 1-1-.448-1-1-1z" fill="#000000" data-original="#000000" style=""/></g></svg>
