<?xml version="1.0"?>
<svg xmlns="http://www.w3.org/2000/svg" xmlns:xlink="http://www.w3.org/1999/xlink" xmlns:svgjs="http://svgjs.com/svgjs" version="1.1" width="512" height="512" x="0" y="0" viewBox="0 0 64 64" style="enable-background:new 0 0 512 512" xml:space="preserve" class=""><g><script/><g xmlns="http://www.w3.org/2000/svg"><g><path d="m24 15h-1c-3.316 0-6.49 1.525-8.566 4.099-3.165.764-5.434 3.622-5.434 6.901 0 3.605 1.601 6.987 4.391 9.278l.277.227h.478c-.093-.488-.146-.99-.146-1.505v-4.697c0-1.272 1.031-2.303 2.303-2.303.455 0 .899.135 1.277.387l2.42 1.613h6c2.209 0 4 1.791 4 4v1c0 .515-.053 1.017-.146 1.505h.478l.277-.227c2.79-2.291 4.391-5.673 4.391-9.278 0-6.065-4.935-11-11-11z" fill="#00cced" data-original="#f0bc5e" style=""/></g><g><path d="m37 40v4h4v5h18v-9z" fill="#00cced" data-original="#f0bc5e" style=""/></g><g><path d="m58 7h-5c0-3.309-2.691-6-6-6s-6 2.691-6 6h-5c-2.757 0-5 2.243-5 5v5.521c.761.63 1.431 1.364 2 2.174v-7.695c0-1.654 1.346-3 3-3h5.35c.384 1.082 1.067 2.02 1.954 2.717-3.688 1.473-6.304 5.075-6.304 9.283v2h20v-2c0-4.208-2.616-7.81-6.304-9.283.887-.697 1.57-1.635 1.954-2.717h5.35c1.654 0 3 1.346 3 3v10c0 1.654-1.346 3-3 3h-8.469l-4.688 5.625c-.197.238-.489.375-.8.375-.575 0-1.043-.468-1.043-1.043v-4.957h-8.051c.03.33.051.662.051 1 0 .336-.028.668-.055 1h6.055v2.957c0 1.678 1.365 3.043 3.043 3.043.906 0 1.759-.399 2.338-1.095l4.088-4.905h7.531c2.757 0 5-2.243 5-5v-10c0-2.757-2.243-5-5-5zm-3 14h-16c0-4.411 3.589-8 8-8s8 3.589 8 8zm-8-10c-2.206 0-4-1.794-4-4s1.794-4 4-4 4 1.794 4 4-1.794 4-4 4z" fill="#000000" data-original="#000000" style=""/><path d="m21 57h2v2h-2z" fill="#000000" data-original="#000000" style=""/><path d="m21 53h2v2h-2z" fill="#000000" data-original="#000000" style=""/><path d="m58 35h-20c-2.757 0-5 2.243-5 5v5.856c-.008-.002-.015-.005-.022-.006l-6.978-1.642v-2.158c2.958-1.476 5-4.526 5-8.05v-1c0-2.757-2.243-5-5-5h-5.697l-2.168-1.445c-.544-.363-1.178-.555-1.832-.555-1.822 0-3.303 1.481-3.303 3.303v4.697c0 3.525 2.042 6.574 5 8.05v2.158l-6.978 1.642c-5.901 1.388-10.022 6.592-10.022 12.654v4.496h42v-4.496c0-1.959-.436-3.825-1.217-5.504h3.748l4.088 4.904c.579.697 1.432 1.096 2.338 1.096 1.678 0 3.043-1.365 3.043-3.043v-2.957h3c2.757 0 5-2.243 5-5v-8c0-2.757-2.243-5-5-5zm-30.406 11.638-2.014 5.468-2.33-3.106 2.157-2.877zm-2.838 7.702-2.453 6.66h-.605l-2.453-6.66 2.755-3.674zm-9.756-20.34v-4.697c0-.719.584-1.303 1.303-1.303.258 0 .508.076.723.219l2.671 1.781h6.303c1.654 0 3 1.346 3 3v1c0 3.86-3.141 7-7 7s-7-3.14-7-7zm7 9c.688 0 1.356-.085 2-.232v1.899l-2 2.667-2-2.667v-1.899c.644.147 1.312.232 2 .232zm-3.407 3.123 2.157 2.877-2.329 3.105-2.014-5.468zm-15.593 12.381c0-5.13 3.487-9.533 8.481-10.708l2.963-.697 5.122 13.901h-8.566v-6h-2v6h-6zm38 2.496h-6v-6h-2v6h-8.566l5.121-13.901 2.963.697c4.995 1.176 8.482 5.579 8.482 10.708zm20-13c0 1.654-1.346 3-3 3h-5v4.957c0 .575-.468 1.043-1.043 1.043-.311 0-.603-.137-.801-.375l-4.687-5.625h-5.849c-1.389-1.968-3.318-3.542-5.62-4.495v-6.505c0-1.654 1.346-3 3-3h20c1.654 0 3 1.346 3 3z" fill="#000000" data-original="#000000" style=""/><path d="m37 39h22v2h-22z" fill="#000000" data-original="#000000" style=""/><path d="m37 43h22v2h-22z" fill="#000000" data-original="#000000" style=""/><path d="m41 47h14v2h-14z" fill="#000000" data-original="#000000" style=""/><path d="m57 47h2v2h-2z" fill="#000000" data-original="#000000" style=""/></g></g></g></svg>
