<svg id="Capa_1" enable-background="new 0 0 497.311 497.311" height="512" viewBox="0 0 497.311 497.311" width="512" xmlns="http://www.w3.org/2000/svg"><g><path d="m475.977 121.748h-315.787-132.58c-15.25 0-27.61 12.36-27.61 27.61v24.7l101.118 61.371h348.69l24.499-31.652z" fill="#f37c7c"/><g><path d="m170.187 235.429h279.621l24.499-31.652 1.67-82.029h-305.79z" fill="#ee6161"/><path d="m57.551 129.242c0-2.599.367-5.11 1.038-7.494h-30.979c-15.25 0-27.61 12.36-27.61 27.61v24.7l57.551 34.929z" fill="#ee6161"/><g><g id="XMLID_171_"><g><path d="m497.31 174.058v295.42c0 15.25-12.36 27.6-27.6 27.6h-442.1c-15.25 0-27.61-12.35-27.61-27.6v-295.42h160.19z" fill="#f9f3f1"/></g></g></g><path d="m170.187 258.237c0 34.613 28.159 62.772 62.771 62.772h221.58c16.516 0 31.552-6.421 42.771-16.885v-130.066h-327.122z" fill="#f3eae6"/><path d="m454.539 301.009h-221.58c-23.622 0-42.772-19.15-42.772-42.772v-215.232c0-23.622 19.15-42.772 42.772-42.772h221.58c23.622 0 42.772 19.15 42.772 42.772v215.232c0 23.622-19.149 42.772-42.772 42.772z" fill="#97da7b"/><path d="m445.286 187.243-34.671-34.671c-3.708-3.708-9.721-3.708-13.429 0l-7.378 7.378c-1.773 1.773-2.773 4.176-2.781 6.684l-.005 1.388c-.026 8.099-6.98 14.44-15.047 13.721-3.228-.288-6.253-1.701-8.545-3.993l-46.81-46.81c-2.292-2.292-3.705-5.316-3.993-8.545-.719-8.067 5.622-15.021 13.721-15.047l1.388-.004c2.508-.008 4.911-1.008 6.684-2.781l7.378-7.378c3.708-3.708 3.708-9.721 0-13.429l-34.671-34.671c-6.029-6.029-15.803-6.029-21.832 0l-15.199 15.199c-30.004 30.004-30.004 78.65 0 108.654l51.337 51.337c30.004 30.004 78.65 30.004 108.654 0l15.199-15.199c6.029-6.03 6.029-15.804 0-21.833z" fill="#faf7f7"/><g><path d="m160.187 242.929h-118.137c-4.143 0-7.5-3.358-7.5-7.5s3.357-7.5 7.5-7.5h118.138c4.143 0 7.5 3.358 7.5 7.5s-3.358 7.5-7.501 7.5z" fill="#efe2dd"/></g><g><path d="m160.187 304.297h-118.137c-4.143 0-7.5-3.358-7.5-7.5s3.357-7.5 7.5-7.5h118.138c4.143 0 7.5 3.358 7.5 7.5s-3.358 7.5-7.501 7.5z" fill="#efe2dd"/></g><g><path d="m449.807 365.665h-340.812c-4.143 0-7.5-3.358-7.5-7.5s3.357-7.5 7.5-7.5h340.813c4.143 0 7.5 3.358 7.5 7.5s-3.358 7.5-7.501 7.5z" fill="#efe2dd"/></g><g><path d="m449.807 427.034h-407.757c-4.143 0-7.5-3.358-7.5-7.5s3.357-7.5 7.5-7.5h407.758c4.143 0 7.5 3.358 7.5 7.5s-3.358 7.5-7.501 7.5z" fill="#efe2dd"/></g><g><path d="m73.053 365.665h-31.003c-4.143 0-7.5-3.358-7.5-7.5s3.357-7.5 7.5-7.5h31.003c4.143 0 7.5 3.358 7.5 7.5s-3.358 7.5-7.5 7.5z" fill="#efe2dd"/></g></g><path d="m111.953 476.962c-30.045 0-54.402-24.357-54.402-54.402v-248.502h-57.551v295.42c0 15.243 12.357 27.6 27.6 27.6h442.11c12.646 0 23.302-8.507 26.565-20.116z" fill="#f3eae6"/><g fill="#e1d3ce"><path d="m42.05 427.034h15.7c-.12-1.477-.198-2.966-.198-4.474v-10.526h-15.502c-4.143 0-7.5 3.358-7.5 7.5s3.357 7.5 7.5 7.5z"/><path d="m42.05 365.665h15.501v-15h-15.501c-4.143 0-7.5 3.358-7.5 7.5s3.357 7.5 7.5 7.5z"/><path d="m42.05 304.297h15.501v-15h-15.501c-4.143 0-7.5 3.358-7.5 7.5s3.357 7.5 7.5 7.5z"/><path d="m42.05 242.929h15.501v-15h-15.501c-4.143 0-7.5 3.358-7.5 7.5s3.357 7.5 7.5 7.5z"/></g></g></svg>