<?xml version="1.0" encoding="iso-8859-1"?>
<!-- Generator: Adobe Illustrator 19.0.0, SVG Export Plug-In . SVG Version: 6.00 Build 0)  -->
<svg version="1.1" id="Capa_1" xmlns="http://www.w3.org/2000/svg" xmlns:xlink="http://www.w3.org/1999/xlink" x="0px" y="0px"
	 viewBox="0 0 511.999 511.999" style="enable-background:new 0 0 511.999 511.999;" xml:space="preserve">
<g>
	<g>
		<path d="M177.153,170.859c-16.66,0-30.213,16.354-30.213,36.456c0,20.102,13.553,36.457,30.213,36.457
			s30.214-16.355,30.214-36.457C207.367,187.213,193.813,170.859,177.153,170.859z M177.152,228.747
			c-8.233,0-15.187-9.815-15.187-21.432c0-11.616,6.955-21.431,15.187-21.431s15.188,9.814,15.188,21.431
			C192.34,218.932,185.385,228.747,177.152,228.747z"/>
	</g>
</g>
<g>
	<g>
		<path d="M334.73,170.859c-16.66,0-30.214,16.354-30.214,36.456c0,20.102,13.554,36.457,30.214,36.457s30.214-16.355,30.214-36.457
			C364.944,187.213,351.39,170.859,334.73,170.859z M334.73,228.747c-8.233,0-15.188-9.815-15.188-21.432
			c0-11.616,6.956-21.431,15.188-21.431c8.233,0,15.188,9.814,15.188,21.431C349.919,218.932,342.963,228.747,334.73,228.747z"/>
	</g>
</g>
<g>
	<g>
		<path d="M428.56,310.154c-0.408-6.302-4.051-12.21-9.668-15.428c-8.021-4.591,6.772-1.661-316.397-2.514
			c-8.371,0-15.321,5.254-18.05,12.536c-2.483,6.622-0.732,11.471,1.274,17.724c12.101,37.648,36.595,71.008,70.304,93.716
			c100.215,67.46,238.468,18.162,271.834-99.421C428.478,314.574,428.707,312.342,428.56,310.154z M171.583,408.206
			c18.978-19.634,47.563-25.395,72.284-15.373c7.772,3.151,16.332,3.151,24.105,0c0.001,0,0.001,0,0.001,0
			c24.306-9.855,53.025-4.585,72.324,15.413C286.973,440.289,222.259,438.574,171.583,408.206z M413.401,312.667
			c-1.68,5.935-3.908,12.367-6.473,18.507H194.531c-4.15,0-7.513,3.364-7.513,7.513s3.363,7.513,7.513,7.513h205.238
			c-11.409,21.057-27.319,39.321-46.799,53.614c-23.248-25.75-59.481-33.538-90.643-20.904c-12.574,5.1-17.819-7.204-47.138-5.832
			c-21.635,1.01-41.774,10.643-56.286,26.697c-18.767-13.775-34.852-31.731-46.74-53.575h47.308c4.15,0,7.513-3.364,7.513-7.513
			s-3.363-7.513-7.513-7.513h-54.532c-2.591-6.182-4.872-12.782-6.503-18.525c-0.775-2.725,1.246-5.412,4.058-5.412h306.854
			C412.098,307.237,414.195,309.868,413.401,312.667z"/>
	</g>
</g>
<g>
	<g>
		<path d="M322.177,8.812C253.228-9.664,182.636,1.675,125.761,35.698c-3.573,2.109-4.761,6.715-2.651,10.288
			c2.109,3.575,6.717,4.761,10.287,2.652l0.904-0.54c52.42-31.374,119.205-42.131,183.989-24.773
			C500.022,72.02,556.992,300.633,423.166,429.454c-2.989,2.878-3.08,7.634-0.202,10.622c2.876,2.987,7.63,3.082,10.622,0.202
			C577.347,301.896,513.491,60.074,322.177,8.812z"/>
	</g>
</g>
<g>
	<g>
		<path d="M407.462,453.021c-2.425-3.366-7.119-4.129-10.488-1.705c-116.183,83.69-278.379,48.581-349.651-74.865
			C-12.88,272.177,13.697,141.122,105.389,67.921c3.241-2.588,3.772-7.316,1.184-10.559c-2.588-3.242-7.316-3.773-10.559-1.184
			c-98.595,78.715-124.909,218.31-61.702,327.786c75.577,130.903,247.812,168.594,371.445,79.544
			C409.123,461.083,409.887,456.388,407.462,453.021z"/>
	</g>
</g>
<g>
</g>
<g>
</g>
<g>
</g>
<g>
</g>
<g>
</g>
<g>
</g>
<g>
</g>
<g>
</g>
<g>
</g>
<g>
</g>
<g>
</g>
<g>
</g>
<g>
</g>
<g>
</g>
<g>
</g>
</svg>
