<?xml version="1.0"?>
<svg xmlns="http://www.w3.org/2000/svg" xmlns:xlink="http://www.w3.org/1999/xlink" version="1.1" id="Layer_1" x="0px" y="0px" viewBox="0 0 512 512" style="enable-background:new 0 0 512 512;" xml:space="preserve" width="512px" height="512px" class=""><g><g><circle style="fill:#1273F1" cx="255.782" cy="261.695" r="156.775" data-original="#1273F1" class="" data-old_color="#52D6C6"/><path style="opacity:0.1;enable-background:new    ;" d="M350.701,136.92c20.073,26.348,32,59.238,32,94.917  c0,86.586-70.193,156.779-156.779,156.779c-35.68,0-68.57-11.927-94.917-32c28.64,37.592,73.872,61.862,124.779,61.862  c86.586,0,156.779-70.193,156.779-156.779C412.563,210.791,388.294,165.56,350.701,136.92z" data-original="#000000" class=""/><g>
	<circle style="fill:#11DBF1" cx="255.782" cy="199.774" r="41.563" data-original="#11DBF1" class="active-path" data-old_color="#11DBF1"/>
	<path style="fill:#11DBF1" d="M329.959,351.34h-148.35c-3.632,0-6.576-2.945-6.576-6.576V312.7   c0-28.051,22.951-51.002,51.002-51.002h59.499c28.051,0,51.002,22.951,51.002,51.002v32.064   C336.535,348.396,333.592,351.34,329.959,351.34z" data-original="#11DBF1" class="active-path" data-old_color="#11DBF1"/>
	<circle style="fill:#11DBF1" cx="255.782" cy="25.137" r="15.289" data-original="#11DBF1" class="active-path" data-old_color="#11DBF1"/>
	<circle style="fill:#11DBF1" cx="255.782" cy="490.945" r="15.289" data-original="#11DBF1" class="active-path" data-old_color="#11DBF1"/>
	<circle style="fill:#11DBF1" cx="488.686" cy="258.041" r="15.289" data-original="#11DBF1" class="active-path" data-old_color="#11DBF1"/>
	<path style="fill:#11DBF1" d="M38.168,258.044c0,8.444-6.845,15.289-15.289,15.289S7.59,266.489,7.59,258.044" data-original="#11DBF1" class="active-path" data-old_color="#11DBF1"/>
	<path style="fill:#11DBF1" d="M7.59,258.044c0-8.443,6.845-15.289,15.289-15.289s15.289,6.845,15.289,15.289" data-original="#11DBF1" class="active-path" data-old_color="#11DBF1"/>
	<circle style="fill:#11DBF1" cx="420.467" cy="93.356" r="15.289" data-original="#11DBF1" class="active-path" data-old_color="#11DBF1"/>
	<path style="fill:#11DBF1" d="M101.907,411.921c5.97,5.97,5.97,15.651,0,21.622s-15.651,5.97-21.622,0" data-original="#11DBF1" class="active-path" data-old_color="#11DBF1"/>
	<path style="fill:#11DBF1" d="M80.285,433.543c-5.97-5.97-5.97-15.651,0-21.622c5.97-5.97,15.651-5.97,21.622,0" data-original="#11DBF1" class="active-path" data-old_color="#11DBF1"/>
	<circle style="fill:#11DBF1" cx="420.467" cy="422.737" r="15.289" data-original="#11DBF1" class="active-path" data-old_color="#11DBF1"/>
	<path style="fill:#11DBF1" d="M101.907,104.167c-5.97,5.97-15.651,5.97-21.622,0s-5.97-15.651,0-21.622" data-original="#11DBF1" class="active-path" data-old_color="#11DBF1"/>
	<path style="fill:#11DBF1" d="M80.285,82.545c5.97-5.97,15.651-5.97,21.622,0c5.97,5.97,5.97,15.651,0,21.622" data-original="#11DBF1" class="active-path" data-old_color="#11DBF1"/>
</g><path d="M255.999,247.103c27.223,0,49.369-22.146,49.369-49.369s-22.146-49.369-49.369-49.369  c-27.222,0-49.369,22.146-49.369,49.369S228.778,247.103,255.999,247.103z M255.999,163.978c18.614,0,33.756,15.142,33.756,33.756  s-15.143,33.756-33.756,33.756c-18.613,0-33.756-15.143-33.756-33.756S237.387,163.978,255.999,163.978z" data-original="#000000" class=""/><path d="M285.749,251.848h-59.499c-32.427,0-58.809,26.382-58.809,58.809v38.64c0,4.312,3.495,7.806,7.806,7.806h161.504  c4.311,0,7.806-3.494,7.806-7.806v-38.64C344.558,278.23,318.177,251.848,285.749,251.848z M328.945,341.49H183.055v-30.834  c0-23.818,19.378-43.196,43.196-43.196h59.499c23.818,0,43.196,19.378,43.196,43.196V341.49z" data-original="#000000" class=""/><path d="M255.999,95.069c-90.753,0-164.586,73.834-164.586,164.586c0,90.753,73.833,164.587,164.586,164.587  s164.587-73.834,164.587-164.587C420.586,168.903,346.752,95.069,255.999,95.069z M255.999,408.628  c-82.144,0-148.973-66.83-148.973-148.974s66.829-148.973,148.973-148.973s148.974,66.829,148.974,148.973  S338.143,408.628,255.999,408.628z" data-original="#000000" class=""/><path d="M255.999,46.192c12.735,0,23.096-10.361,23.096-23.096S268.734,0.001,255.999,0.001c-12.735,0-23.095,10.361-23.095,23.095  C232.905,35.831,243.266,46.192,255.999,46.192z M255.999,15.613c4.126,0,7.483,3.357,7.483,7.482s-3.357,7.483-7.483,7.483  c-4.126,0-7.482-3.358-7.482-7.483S251.875,15.613,255.999,15.613z" data-original="#000000" class=""/><path d="M255.999,465.81c-12.735,0-23.095,10.361-23.095,23.095c0,12.734,10.361,23.095,23.095,23.095  c12.734,0,23.096-10.361,23.096-23.095C279.095,476.171,268.734,465.81,255.999,465.81z M255.999,496.388  c-4.126,0-7.482-3.357-7.482-7.482c0-4.125,3.357-7.482,7.482-7.482c4.125,0,7.483,3.357,7.483,7.482  C263.482,493.031,260.125,496.388,255.999,496.388z" data-original="#000000" class=""/><path d="M488.905,232.905c-12.735,0-23.096,10.361-23.096,23.096c0,12.734,10.361,23.095,23.096,23.095  c12.735,0,23.095-10.361,23.095-23.095C512,243.266,501.64,232.905,488.905,232.905z M488.905,263.484  c-4.126,0-7.483-3.357-7.483-7.482c0-4.125,3.357-7.483,7.483-7.483c4.126,0,7.482,3.358,7.482,7.483  C496.387,260.127,493.031,263.484,488.905,263.484z" data-original="#000000" class=""/><path d="M23.096,232.905C10.361,232.905,0,243.266,0,256.001c0,12.734,10.361,23.095,23.095,23.095s23.095-10.361,23.095-23.095  C46.19,243.266,35.831,232.905,23.096,232.905z M23.096,263.484c-4.126,0-7.482-3.357-7.482-7.482c0-4.125,3.357-7.483,7.482-7.483  s7.482,3.358,7.482,7.483C30.577,260.127,27.222,263.484,23.096,263.484z" data-original="#000000" class=""/><path d="M404.358,74.981c-9.005,9.005-9.005,23.658,0,32.662c4.503,4.502,10.417,6.753,16.33,6.753  c5.914,0,11.828-2.251,16.331-6.753c9.005-9.005,9.005-23.658,0-32.662C428.015,65.979,413.364,65.979,404.358,74.981z   M425.98,96.603c-2.918,2.919-7.665,2.918-10.582,0c-2.918-2.918-2.918-7.663,0-10.58c1.458-1.458,3.374-2.189,5.291-2.189  c1.916,0,3.832,0.73,5.291,2.189C428.896,88.939,428.896,93.686,425.98,96.603z" data-original="#000000" class=""/><path d="M107.049,403.822c-9.043-8.44-23.254-8.278-32.069,0.537c-8.813,8.814-8.976,23.025-0.536,32.068  c0.114,0.141,0.241,0.273,0.367,0.407c0.059,0.06,0.108,0.127,0.169,0.186l0,0l0.001,0.001c0.093,0.093,0.195,0.17,0.288,0.26  c0.102,0.092,0.2,0.189,0.305,0.275c4.424,4.129,10.073,6.217,15.738,6.217c5.914,0,11.828-2.251,16.331-6.752  c4.362-4.362,6.765-10.163,6.765-16.331s-2.402-11.969-6.765-16.331C107.452,404.167,107.254,403.989,107.049,403.822z   M96.603,425.98c-2.918,2.917-7.663,2.919-10.582,0c-2.918-2.919-2.918-7.665,0-10.582c2.919-2.918,7.666-2.918,10.582,0  c1.413,1.412,2.191,3.292,2.191,5.291S98.016,424.567,96.603,425.98z" data-original="#000000" class=""/><path d="M404.358,404.357c-9.005,9.006-9.005,23.658,0,32.663l0,0c4.503,4.502,10.416,6.752,16.33,6.752  c5.914,0,11.828-2.251,16.331-6.752c9.005-9.006,9.005-23.658,0-32.663C428.015,395.355,413.364,395.354,404.358,404.357z   M425.98,425.98c-2.918,2.918-7.664,2.919-10.582,0l0,0c-2.918-2.918-2.918-7.664,0-10.581c2.918-2.918,7.665-2.918,10.582,0  C428.897,418.317,428.896,423.063,425.98,425.98z" data-original="#000000" class=""/><path d="M74.981,107.644c4.362,4.361,10.162,6.765,16.33,6.765c6.169,0,11.969-2.403,16.331-6.765c0.19-0.19,0.37-0.389,0.536-0.593  c8.441-9.043,8.278-23.254-0.536-32.069c-9.003-9.002-23.656-9.002-32.661,0c-0.192,0.192-0.371,0.39-0.538,0.596  C66.004,84.62,66.168,98.83,74.981,107.644z M96.603,86.023c1.413,1.412,2.191,3.291,2.191,5.29c0,1.999-0.779,3.878-2.191,5.291  c-1.413,1.413-3.292,2.192-5.291,2.192s-3.877-0.779-5.291-2.191c-2.917-2.916-2.918-7.662-0.003-10.579  c0.001-0.001,0.001-0.001,0.001-0.001C88.938,83.105,93.685,83.105,96.603,86.023z" data-original="#000000" class=""/></g></g> </svg>
