<svg height="512" viewBox="0 0 64 64" width="512" xmlns="http://www.w3.org/2000/svg"><g id="online_support" data-name="online support"><rect fill="#57a4ff" height="34" rx="2" width="54" x="5" y="19"/><path d="m59 21v30a2.006 2.006 0 0 1 -2 2h-50a2.006 2.006 0 0 1 -2-2v-2h38a12 12 0 0 0 12-12v-18h2a2.006 2.006 0 0 1 2 2z" fill="#2488ff"/><path d="m61 57-.62 2.49a1.992 1.992 0 0 1 -1.94 1.51h-52.88a1.992 1.992 0 0 1 -1.94-1.51l-.62-2.49h25v2h8v-2z" fill="#e0e0e2"/><path d="m61 57-.62 2.49a1.992 1.992 0 0 1 -1.94 1.51h-4a1.992 1.992 0 0 0 1.94-1.51l.62-2.49z" fill="#c6c5ca"/><path d="m49 45v8h-34v-8a4 4 0 0 1 4-4h26a4 4 0 0 1 4 4z" fill="#00d7df"/><path d="m44 23v1a2.006 2.006 0 0 1 -2 2h-1v-5h1a2.006 2.006 0 0 1 2 2z" fill="#ffb655"/><path d="m44 7v7a5.983 5.983 0 0 1 -2.69 5 3.207 3.207 0 0 1 -.31.19v-1.19l-5.64-1.54a5.463 5.463 0 0 1 -1.36 1.54c-2 1.55-4.85 1.47-5 1-.07-.22.48-.44 1-1a5.27 5.27 0 0 0 1-3h-1l-7 3v2a3.011 3.011 0 0 1 -3-3v-2a8 8 0 0 1 8-8z" fill="#ffde55"/><path d="m44 7v7a5.983 5.983 0 0 1 -2.69 5 3.207 3.207 0 0 1 -.31.19v-1.19l-.44-.12a5.912 5.912 0 0 0 1.44-3.88v-7z" fill="#ffcd00"/><path d="m40.06 30a9 9 0 0 1 -5.06 4.48 8.914 8.914 0 0 1 -6 0 8.981 8.981 0 0 1 -6-8.48v-8l7-3h1a5.27 5.27 0 0 1 -1 3c-.52.56-1.07.78-1 1 .15.47 3 .55 5-1a5.463 5.463 0 0 0 1.36-1.54l5.64 1.54v8a8.956 8.956 0 0 1 -.94 4z" fill="#ffdaaa"/><path d="m39 41-7 4-7-4 4-3v-3.52a8.914 8.914 0 0 0 6 0v3.52z" fill="#ffdaaa"/><path d="m39 41-7 4-1-.57 6-3.43-4-3v-3.06a8.431 8.431 0 0 0 2-.46v3.52z" fill="#ffc477"/><path d="m49 45v8h-34v-2h24a8 8 0 0 0 8-8 3.931 3.931 0 0 0 -.36-1.64 3.988 3.988 0 0 1 2.36 3.64z" fill="#00b6bd"/><path d="m41 18v8a9 9 0 0 1 -6 8.48 8.914 8.914 0 0 1 -6 0 9.044 9.044 0 0 1 -4.31-3.23 8.991 8.991 0 0 0 2.31 1.23 8.914 8.914 0 0 0 6 0 9 9 0 0 0 6-8.48v-6.55z" fill="#ffc477"/><path d="m23 21v5h-1a2.006 2.006 0 0 1 -2-2v-1a2.006 2.006 0 0 1 2-2z" fill="#ffb655"/><path d="m61.788 56.385a1 1 0 0 0 -.788-.385h-25a1 1 0 0 0 -1 1v1h-6v-1a1 1 0 0 0 -1-1h-25a1 1 0 0 0 -.97 1.243l.621 2.485a3 3 0 0 0 2.911 2.272h52.876a3 3 0 0 0 2.911-2.272l.621-2.485a1 1 0 0 0 -.182-.858zm-56.226 3.615a1 1 0 0 1 -.971-.758l-.31-1.242h22.719v1a1 1 0 0 0 1 1zm53.847-.758a1 1 0 0 1 -.971.758h-22.438a1 1 0 0 0 1-1v-1h22.719z"/><path d="m57 18h-8v-11a5 5 0 0 0 -5-5h-24a5 5 0 0 0 -5 5v11h-8a3.009 3.009 0 0 0 -3 3v30a3.009 3.009 0 0 0 3 3h50a3.009 3.009 0 0 0 3-3v-30a3.009 3.009 0 0 0 -3-3zm-40-11a3.009 3.009 0 0 1 3-3h24a3.009 3.009 0 0 1 3 3v11h-3.28a7 7 0 0 0 1.28-4v-7a1 1 0 0 0 -1-1h-16a9.014 9.014 0 0 0 -9 9v2a4.091 4.091 0 0 0 .14 1h-2.14zm21.24 24a8 8 0 0 1 -14.24-5v-7.34l5.8-2.48a2.94 2.94 0 0 1 -.53 1.14 5.038 5.038 0 0 1 -.52.45 1.4 1.4 0 0 0 -.7 1.53 1.332 1.332 0 0 0 .95.86 7.2 7.2 0 0 0 5.6-1.36 6.049 6.049 0 0 0 1.18-1.19l4.22 1.15v7.24a7.9 7.9 0 0 1 -.59 3h-7.41v2zm-3.84 7.8 2.78 2.09-5.18 2.96-5.18-2.96 2.78-2.09a1.014 1.014 0 0 0 .4-.8v-2.2a10.1 10.1 0 0 0 4 0v2.2a1.014 1.014 0 0 0 .4.8zm1.22-23.3a.983.983 0 0 0 -1.11.44 4.485 4.485 0 0 1 -1.12 1.27 5.479 5.479 0 0 1 -2.28.99 7.362 7.362 0 0 0 .89-3.11 1 1 0 0 0 -1-1.09h-1a1.006 1.006 0 0 0 -.39.08l-7 3a1 1 0 0 0 -.61.92v.72a1.988 1.988 0 0 1 -1-1.72v-2a7.008 7.008 0 0 1 7-7h15v6a4.971 4.971 0 0 1 -1.28 3.32.942.942 0 0 0 -.46-.28zm-13.62 6.5v3a1 1 0 0 1 -1-1v-1a1 1 0 0 1 1-1zm20 0a1 1 0 0 1 1 1v1a1 1 0 0 1 -1 1zm-.05 5h.05a3.009 3.009 0 0 0 3-3h2v2a3.009 3.009 0 0 1 -3 3h-2.46a10.137 10.137 0 0 0 .41-2zm2.87-5a3.01 3.01 0 0 0 -2.82-2h5v2zm-27.82-2h3.38c.12.1.23.2.35.29a3 3 0 0 0 -1.55 1.71h-2.18zm-3 25v7h-7a1 1 0 0 1 -1-1v-30a1 1 0 0 1 1-1h8v3a1 1 0 0 0 1 1h3a3.009 3.009 0 0 0 3 3h.05a10.024 10.024 0 0 0 5.95 8.16v2.34l-3.33 2.5h-5.67a5 5 0 0 0 -5 5zm34 7h-32v-7a3.009 3.009 0 0 1 3-3h5.73l6.77 3.87a1.044 1.044 0 0 0 1 0l6.77-3.87h5.73a3.009 3.009 0 0 1 3 3zm10-1a1 1 0 0 1 -1 1h-7v-7a5 5 0 0 0 -5-5h-5.67l-3.33-2.5v-2.34a10.1 10.1 0 0 0 4.65-4.16h3.35a5 5 0 0 0 5-5v-6h8a1 1 0 0 1 1 1z"/><path d="m54 22h2v2h-2z"/><path d="m54 26h2v2h-2z"/><path d="m54 30h2v2h-2z"/><path d="m8 40h2v2h-2z"/><path d="m8 44h2v2h-2z"/><path d="m8 48h2v2h-2z"/></g></svg>