<svg viewBox="-31 0 512 512.00003" xmlns="http://www.w3.org/2000/svg"><path d="m449.765625 482.792969-17.097656-100.089844c-4.570313-26.769531-24.429688-48.777344-50.589844-56.066406l-87.53125-24.394531c-3.6875-1.027344-7.621094-.742188-11.109375.710937-2.644531-3.105469-4.40625-7.488281-4.40625-11.515625v-20.785156c6.882812-5.589844 12.5625-11.726563 17.089844-17.492188 13.707031-17.433594 21.105468-36.640625 23.066406-49.867187h5.152344c11.828125 0 21.449218-9.621094 21.449218-21.449219v-10.808594c0-6.316406-2.765624-12.191406-7.429687-16.21875v-88.570312c0-24.636719-16.769531-45.6875-40.785156-51.195313l-57.363281-13.15625c-11.222657-2.574219-23.074219-2.523437-34.273438.140625l-53.8125 12.8125c-23.765625 5.65625-40.363281 26.667969-40.363281 51.097656v88.871094c-4.660157 4.023438-7.425781 9.898438-7.425781 16.21875v10.808594c0 11.828125 9.621093 21.449219 21.449218 21.449219h5.148438c1.960937 13.222656 9.359375 32.433593 23.066406 49.867187 4.53125 5.761719 10.207031 11.902344 17.09375 17.492188v20.78125c0 4.03125-1.761719 8.410156-4.40625 11.515625-3.488281-1.453125-7.425781-1.738281-11.109375-.710938l-87.53125 24.394531c-26.160156 7.292969-46.019531 29.300782-50.59375 56.066407l-.945313 5.542969c-.695312 4.070312 2.039063 7.933593 6.109376 8.628906.425781.074218.851562.109375 1.269531.109375 3.574219 0 6.734375-2.574219 7.359375-6.21875l.945312-5.542969c3.605469-21.09375 19.253906-38.4375 39.867188-44.183594l11.308594-3.148437v95.308593l-2.214844 1.792969c-.867188.699219-1.566406 1.585938-2.046875 2.589844l-5.332031 11.15625c-.480469 1.007813-.730469 2.109375-.730469 3.226563v45.085937h-48.042969c-2.96875 0-5.765625-1.304687-7.679688-3.570313-1.910156-2.265624-2.722656-5.246093-2.222656-8.167968l10.308594-60.34375c.695312-4.070313-2.042969-7.933594-6.109375-8.628906-4.070313-.691407-7.933594 2.042968-8.628906 6.109374l-10.308594 60.347657c-1.242187 7.273437.773437 14.683593 5.535156 20.328125 4.757813 5.640625 11.722657 8.878906 19.105469 8.878906h400.125c7.382812 0 14.34375-3.234375 19.105469-8.878906 4.757812-5.640625 6.777343-13.050782 5.535156-20.328125zm-114.367187-153.644531 16.386718 4.566406v87.394531l-15.21875-12.292969c-.011718-.007812-.023437-.015625-.035156-.023437-.367188-.296875-.746094-.582031-1.132812-.855469zm-25.203126-172.148438v-11.457031c4.269532.09375 8.507813-.933594 12.367188-3.066407.289062-.160156.566406-.328124.84375-.496093v10.535156c-3.800781.660156-8.550781 1.957031-13.210938 4.484375zm20.640626 14.035156v10.808594c0 3.582031-2.914063 6.496094-6.496094 6.496094h-4.613282v-19.332032c3.828126-1.558593 7.609376-2.019531 9.582032-2.15625.972656 1.15625 1.527344 2.625 1.527344 4.183594zm-200.4375 17.304688h-4.613282c-3.582031 0-6.496094-2.914063-6.496094-6.496094v-10.808594c0-1.558594.554688-3.027344 1.523438-4.179687 1.988281.136719 5.765625.601562 9.585938 2.152343zm-3.683594-35.824219v-10.535156c.277344.167969.558594.335937.84375.496093 3.699218 2.042969 7.746094 3.082032 11.835937 3.082032.179688 0 .355469-.015625.535157-.023438v11.464844c-4.664063-2.527344-9.414063-3.824219-13.214844-4.484375zm18.566406-23.253906-.753906.222656c-.765625.226563-1.53125.453125-2.296875.6875-2.496094.765625-5.136719.488281-7.4375-.78125-2.328125-1.289063-3.992188-3.414063-4.683594-5.984375l-1.867187-6.945312c8.011718-2.8125 16.113281-5.289063 24.15625-7.390626 3.996093-1.042968 6.386718-5.125 5.34375-9.121093-1.042969-3.996094-5.125-6.386719-9.121094-5.34375-7.296875 1.902343-14.628906 4.109375-21.90625 6.574219v-35.234376c0-17.476562 11.871094-32.507812 28.875-36.554687l53.808594-12.808594c8.980468-2.136719 18.476562-2.175781 27.46875-.113281l57.363281 13.15625c17.179687 3.9375 29.175781 19 29.175781 36.621094v34.929687c-46.140625-15.625-93.234375-20.183593-140.148438-13.539062-4.085937.582031-6.933593 4.363281-6.351562 8.453125.578125 4.085937 4.363281 6.933594 8.449219 6.351562 45.671875-6.46875 91.570312-1.75 136.527343 14.019532l-1.867187 6.945312c-.695313 2.570312-2.359375 4.695312-4.6875 5.984375-2.296875 1.269531-4.941406 1.546875-7.433594.78125h-.003906c-.765625-.238281-1.535156-.460937-2.304687-.6875l-.746094-.21875s-.003906 0-.003906-.003906c-52.953126-15.652344-106.59375-15.652344-159.546876 0-.003906 0-.003906 0-.007812 0zm20.472656 114.65625c-13.25-16.855469-20.402344-36.917969-20.402344-47.238281v-20.449219c1.039063-.09375 2.082032-.34375 3.082032-.761719 3.914062-1.632812 6.445312-5.429688 6.445312-9.671875v-23.722656c46.613282-12.789063 93.75-12.789063 140.363282 0v23.722656c0 4.242187 2.53125 8.039063 6.445312 9.671875 1.003906.417969 2.042969.667969 3.085938.761719v20.449219c0 10.320312-7.152344 30.382812-20.40625 47.238281-4.386719 5.578125-10.023438 11.574219-16.96875 16.816406-.226563.152344-.441407.316406-.652344.492187-10.75 7.945313-24.566406 14.027344-41.683594 14.027344-17.121094 0-30.941406-6.085937-41.691406-14.03125-.207032-.171875-.421875-.335937-.644532-.488281-6.945312-5.242187-12.585937-11.234375-16.972656-16.816406zm52.40625 70.613281c-2.53125 0-4.910156.664062-6.976562 1.820312-11.78125-5.464843-21.546875-8.566406-29.242188-9.304687 2.605469-4.761719 4.105469-10.199219 4.105469-15.609375v-10.847656c10.886719 5.757812 23.847656 9.617187 39.015625 9.617187s28.125-3.859375 39.015625-9.617187v10.847656c0 5.410156 1.496094 10.847656 4.101563 15.605469-7.691407.742187-17.460938 3.84375-29.238282 9.308593-2.070312-1.15625-4.449218-1.820312-6.980468-1.820312zm13.214844 14.953125v25.210937h-12.628906v-25.210937zm-53.410156 9.375c-1.734375-3.617187-4.394532-11.925781-2.996094-15.664063.175781-.46875.371094-.726562.730469-.9375.113281-.054687.226562-.105468.335937-.167968.503906-.210938 1.316406-.347656 2.46875-.347656 4.003906 0 12.089844 1.65625 25.292969 7.664062v25.367188c-17.070313 7.765624-25.582031 8.257812-27.789063 7.304687-.574218-.25-.816406-.503906-1.035156-1.085937-1.339844-3.5625.996094-11.464844 2.992188-15.671876.976562-2.042968.976562-4.417968 0-6.460937zm68.363281-9.453125c17.011719-7.742188 25.523437-8.257812 27.761719-7.3125.101562.054688.207031.101562.308594.152344.371093.214844.574218.46875.75.941406 1.339843 3.558594-.996094 11.464844-2.988282 15.671875-.976562 2.042969-.976562 4.417969 0 6.460937 1.734375 3.617188 4.390625 11.925782 2.992188 15.664063-.21875.589844-.460938.847656-1.035156 1.09375-2.203126.957031-10.71875.460937-27.789063-7.304687zm-116.664063-4.421875 29.929688-8.339844c.589844-.164062 1.238281-.042969 1.730469.324219.015625.011719.035156.023438.046875.035156-.136719.316406-.285156.628906-.40625.957032-3.128906 8.363281-.011719 18.71875 2.117187 24.128906-2.128906 5.414062-5.246093 15.765625-2.117187 24.132812 1.644531 4.398438 4.792968 7.714844 9.101562 9.578125 2.351563 1.019531 5.15625 1.527344 8.414063 1.527344 8.136719 0 19.085937-3.183594 32.699219-9.5 2.070312 1.15625 4.449218 1.820313 6.980468 1.820313h13.800782c2.53125 0 4.910156-.664063 6.980468-1.820313 13.617188 6.316406 24.5625 9.5 32.699219 9.5 3.257813 0 6.066406-.507813 8.417969-1.527344 4.308594-1.863281 7.457031-5.179687 9.101562-9.578125 3.125-8.367187.007813-18.71875-2.117187-24.132812 2.125-5.410156 5.242187-15.765625 2.117187-24.128906-.125-.328126-.273437-.640626-.410156-.957032.015625-.011718.03125-.023437.046875-.035156.5-.371094 1.132813-.488281 1.734375-.324219l29.914062 8.335938v78.996093h-190.78125zm-31.34375 8.734375 5.84375-1.628906 10.546876-2.9375v78.796875c-.394532.277343-.78125.566406-1.15625.867187l-15.234376 12.304688zm263.804688 163.328125h-274.128906v-43.390625l3.871094-8.101562 31.082031-25.105469c.285156-.226563.59375-.429688.90625-.609375.257812-.144532.535156-.269532.820312-.382813.816407-.335937 1.695313-.527343 2.589844-.527343h195.59375c.894531 0 1.773437.195312 2.59375.53125.28125.113281.554687.234374.8125.378906.289063.164062.570313.355468.835937.5625.019532.019531.046876.03125.070313.046875 0 0 0 .003906.003906.003906l31.082031 25.105469 3.871094 8.097656v43.390625zm70.675781-3.566406c-1.914062 2.265625-4.710937 3.566406-7.679687 3.566406h-48.042969v-45.085937c0-1.113282-.25-2.214844-.730469-3.222657l-5.328125-11.152343c-.484375-1.007813-1.183593-1.894532-2.050781-2.597657l-2.230469-1.800781v-95.304688l11.324219 3.15625c20.613281 5.746094 36.261719 23.085938 39.867188 44.179688l17.09375 100.09375c.5 2.921875-.308594 5.898438-2.222657 8.167969zm0 0"/></svg>